<?xml version="1.0" encoding="UTF-8" standalone="no"?>
<!-- Generator: Adobe Illustrator 19.0.0, SVG Export Plug-In . SVG Version: 6.00 Build 0)  -->

<svg
   xmlns:dc="http://purl.org/dc/elements/1.1/"
   xmlns:cc="http://creativecommons.org/ns#"
   xmlns:rdf="http://www.w3.org/1999/02/22-rdf-syntax-ns#"
   xmlns:svg="http://www.w3.org/2000/svg"
   xmlns="http://www.w3.org/2000/svg"
   xmlns:sodipodi="http://sodipodi.sourceforge.net/DTD/sodipodi-0.dtd"
   xmlns:inkscape="http://www.inkscape.org/namespaces/inkscape"
   version="1.1"
   id="Capa_1"
   x="0px"
   y="0px"
   viewBox="0 0 6.1523438 6.1523438"
   xml:space="preserve"
   width="75"
   height="75"
   sodipodi:docname="add.svg"
   inkscape:version="0.92.0 r15299"><metadata
   id="metadata47"><rdf:RDF><cc:Work
       rdf:about=""><dc:format>image/svg+xml</dc:format><dc:type
         rdf:resource="http://purl.org/dc/dcmitype/StillImage" /><dc:title></dc:title></cc:Work></rdf:RDF></metadata><defs
   id="defs45" /><sodipodi:namedview
   pagecolor="#ffffff"
   bordercolor="#666666"
   borderopacity="1"
   objecttolerance="10"
   gridtolerance="10"
   guidetolerance="10"
   inkscape:pageopacity="0"
   inkscape:pageshadow="2"
   inkscape:window-width="1920"
   inkscape:window-height="1057"
   id="namedview43"
   showgrid="false"
   fit-margin-top="0"
   fit-margin-left="0"
   fit-margin-right="0"
   fit-margin-bottom="0"
   inkscape:zoom="1.6484375"
   inkscape:cx="256"
   inkscape:cy="256"
   inkscape:window-x="1072"
   inkscape:window-y="409"
   inkscape:window-maximized="1"
   inkscape:current-layer="Capa_1" />
<path
   d="M 5.4285645,2.34375 H 3.8085938 V 0.72378 C 3.8085938,0.325781 3.4743164,0 3.0761719,0 2.6780273,0 2.34375,0.325781 2.34375,0.72378 V 2.34375 H 0.7237793 C 0.32578125,2.34375 0,2.678028 0,3.076172 0,3.474317 0.32578125,3.808594 0.7237793,3.808594 H 2.34375 v 1.619971 c 0,0.397998 0.3342773,0.723779 0.7324219,0.723779 0.3981445,0 0.7324219,-0.325781 0.7324219,-0.723779 V 3.808594 h 1.6199707 c 0.397998,0 0.7237792,-0.334277 0.7237792,-0.732422 0,-0.398144 -0.3257812,-0.732422 -0.7237792,-0.732422 z"
   id="path10"
   inkscape:connector-curvature="0"
   style="fill:#f0ffff;stroke-width:0.14648438" />
<g
   id="g12"
   transform="translate(0,-35.847656)">
</g>
<g
   id="g14"
   transform="translate(0,-35.847656)">
</g>
<g
   id="g16"
   transform="translate(0,-35.847656)">
</g>
<g
   id="g18"
   transform="translate(0,-35.847656)">
</g>
<g
   id="g20"
   transform="translate(0,-35.847656)">
</g>
<g
   id="g22"
   transform="translate(0,-35.847656)">
</g>
<g
   id="g24"
   transform="translate(0,-35.847656)">
</g>
<g
   id="g26"
   transform="translate(0,-35.847656)">
</g>
<g
   id="g28"
   transform="translate(0,-35.847656)">
</g>
<g
   id="g30"
   transform="translate(0,-35.847656)">
</g>
<g
   id="g32"
   transform="translate(0,-35.847656)">
</g>
<g
   id="g34"
   transform="translate(0,-35.847656)">
</g>
<g
   id="g36"
   transform="translate(0,-35.847656)">
</g>
<g
   id="g38"
   transform="translate(0,-35.847656)">
</g>
<g
   id="g40"
   transform="translate(0,-35.847656)">
</g>
</svg>
