<?xml version="1.0" encoding="UTF-8" standalone="no"?>
<!-- Generator: Adobe Illustrator 16.0.0, SVG Export Plug-In . SVG Version: 6.00 Build 0)  -->

<svg
   xmlns:dc="http://purl.org/dc/elements/1.1/"
   xmlns:cc="http://creativecommons.org/ns#"
   xmlns:rdf="http://www.w3.org/1999/02/22-rdf-syntax-ns#"
   xmlns:svg="http://www.w3.org/2000/svg"
   xmlns="http://www.w3.org/2000/svg"
   xmlns:sodipodi="http://sodipodi.sourceforge.net/DTD/sodipodi-0.dtd"
   xmlns:inkscape="http://www.inkscape.org/namespaces/inkscape"
   version="1.1"
   id="Capa_1"
   x="0px"
   y="0px"
   width="75"
   height="75.000153"
   viewBox="0 0 74.999998 75.000152"
   xml:space="preserve"
   sodipodi:docname="graph.svg"
   inkscape:version="0.92.0 r15299"><metadata
   id="metadata88"><rdf:RDF><cc:Work
       rdf:about=""><dc:format>image/svg+xml</dc:format><dc:type
         rdf:resource="http://purl.org/dc/dcmitype/StillImage" /><dc:title /></cc:Work></rdf:RDF></metadata><defs
   id="defs86" /><sodipodi:namedview
   pagecolor="#ffffff"
   bordercolor="#666666"
   borderopacity="1"
   objecttolerance="10"
   gridtolerance="10"
   guidetolerance="10"
   inkscape:pageopacity="0"
   inkscape:pageshadow="2"
   inkscape:window-width="1920"
   inkscape:window-height="1057"
   id="namedview84"
   showgrid="false"
   fit-margin-top="0"
   fit-margin-left="0"
   fit-margin-right="0"
   fit-margin-bottom="0"
   inkscape:zoom="11.005644"
   inkscape:cx="57.443112"
   inkscape:cy="36.82295"
   inkscape:window-x="1072"
   inkscape:window-y="409"
   inkscape:window-maximized="1"
   inkscape:current-layer="Capa_1" />
<g
   id="g51"
   transform="matrix(0.15457193,0,0,0.15457193,-1.5457193e-4,0)">
	<path
   d="m 454.89,121.304 c -14.071,0 -25.385,9.771 -28.787,22.745 h -47.025 l 64.289,-85.707 c 3.552,1.449 7.435,2.308 11.523,2.308 16.759,0 30.322,-13.562 30.322,-30.324 C 485.212,13.567 471.648,0 454.89,0 c -16.765,0 -30.327,13.567 -30.327,30.327 0,7.108 2.814,13.385 6.931,18.54 l -71.369,95.183 h -58.408 c -3.431,-12.975 -14.715,-22.745 -28.782,-22.745 -16.75,0 -30.326,13.562 -30.326,30.324 0,7.376 2.961,13.892 7.332,19.133 l -56.138,78.596 -42.526,-8.468 c -0.947,-15.931 -13.831,-28.607 -29.97,-28.607 -16.748,0 -30.327,13.562 -30.327,30.324 0,16.762 13.579,30.324 30.327,30.324 11.978,0 22.108,-7.107 27.037,-17.175 l 35.789,7.164 -52.047,72.83 c -3.36,-1.278 -6.959,-2.165 -10.779,-2.165 -16.748,0 -30.327,13.562 -30.327,30.321 0,16.769 13.579,30.331 30.327,30.331 16.746,0 30.324,-13.562 30.324,-30.331 0,-7.374 -2.947,-13.885 -7.33,-19.13 l 56.133,-78.599 42.529,8.499 c 0.95,15.91 13.843,28.581 29.972,28.581 16.76,0 30.322,-13.558 30.322,-30.327 0,-7.107 -2.81,-13.385 -6.931,-18.537 L 367.7,159.21 h 58.403 c 3.436,12.974 14.716,22.745 28.787,22.745 16.759,0 30.322,-13.565 30.322,-30.327 0,-16.762 -13.564,-30.324 -30.322,-30.324 z M 284.457,244.919 c -3.557,-1.454 -7.439,-2.313 -11.523,-2.313 -11.979,0 -22.122,7.105 -27.055,17.178 l -35.775,-7.137 52.05,-72.883 c 3.374,1.304 6.958,2.191 10.78,2.191 14.067,0 25.352,-9.773 28.782,-22.745 h 47.03 z m 200.755,209.967 v 30.326 H 0.001 V 0 h 30.327 v 454.886 z"
   id="path49"
   inkscape:connector-curvature="0" />
</g>
<g
   id="g53"
   transform="translate(-0.001,-410.21185)">
</g>
<g
   id="g55"
   transform="translate(-0.001,-410.21185)">
</g>
<g
   id="g57"
   transform="translate(-0.001,-410.21185)">
</g>
<g
   id="g59"
   transform="translate(-0.001,-410.21185)">
</g>
<g
   id="g61"
   transform="translate(-0.001,-410.21185)">
</g>
<g
   id="g63"
   transform="translate(-0.001,-410.21185)">
</g>
<g
   id="g65"
   transform="translate(-0.001,-410.21185)">
</g>
<g
   id="g67"
   transform="translate(-0.001,-410.21185)">
</g>
<g
   id="g69"
   transform="translate(-0.001,-410.21185)">
</g>
<g
   id="g71"
   transform="translate(-0.001,-410.21185)">
</g>
<g
   id="g73"
   transform="translate(-0.001,-410.21185)">
</g>
<g
   id="g75"
   transform="translate(-0.001,-410.21185)">
</g>
<g
   id="g77"
   transform="translate(-0.001,-410.21185)">
</g>
<g
   id="g79"
   transform="translate(-0.001,-410.21185)">
</g>
<g
   id="g81"
   transform="translate(-0.001,-410.21185)">
</g>
<path
   style="fill:#f0ffff;fill-opacity:1;stroke-width:0.18172495"
   d="M 0.06184523,37.520419 V 0.08507957 H 2.3334071 4.6049689 V 35.248857 70.412634 H 39.768746 74.932523 v 2.271562 2.271562 H 37.497184 0.06184523 Z"
   id="path4609"
   inkscape:connector-curvature="0" /><path
   style="fill:#f0ffff;fill-opacity:1;stroke-width:0.18172495"
   d="M 0.06184523,37.465901 V 0.12142456 H 2.3334071 4.6049689 V 35.285202 70.448979 H 39.768746 74.932523 v 2.180699 2.1807 H 37.497184 0.06184523 Z"
   id="path4613"
   inkscape:connector-curvature="0" /><path
   style="fill:#f0ffff;fill-opacity:1;stroke-width:0.18172495"
   d="M 0.06184523,37.465901 V 0.12142456 H 2.3334071 4.6049689 V 35.285202 70.448979 H 39.768746 74.932523 v 2.180699 2.1807 H 37.497184 0.06184523 Z"
   id="path4615"
   inkscape:connector-curvature="0" /><path
   style="fill:#f0ffff;fill-opacity:1;stroke-width:0.18172495"
   d="M 0.06184523,37.465901 V 0.12142456 H 2.3334071 4.6049689 V 35.285202 70.448979 H 39.768746 74.932523 v 2.180699 2.1807 H 37.497184 0.06184523 Z"
   id="path4617"
   inkscape:connector-curvature="0" /><path
   style="fill:#f0ffff;fill-opacity:1;stroke-width:0.18172495"
   d="M 0.06184523,37.465901 V 0.12142456 H 2.3334071 4.6049689 V 35.285202 70.448979 H 39.768746 74.932523 v 2.180699 2.1807 H 37.497184 0.06184523 Z"
   id="path4619"
   inkscape:connector-curvature="0" /><path
   style="fill:#f0ffff;fill-opacity:1;stroke-width:0.18172495"
   d="M 0.06184523,37.465901 V 0.12142456 H 2.3334071 4.6049689 V 35.285202 70.448979 H 39.768746 74.932523 v 2.180699 2.1807 H 37.497184 0.06184523 Z"
   id="path4621"
   inkscape:connector-curvature="0" /><path
   style="fill:#f0ffff;fill-opacity:1;stroke-width:0.18172495"
   d="M 0.06184523,37.465901 V 0.12142456 H 2.3334071 4.6049689 V 35.285202 70.448979 H 39.768746 74.932523 v 2.180699 2.1807 H 37.497184 0.06184523 Z"
   id="path4623"
   inkscape:connector-curvature="0" /><path
   style="fill:#f0ffff;fill-opacity:1;stroke-width:0.18172495"
   d="M 0.06184523,37.465901 V 0.12142456 H 2.3334071 4.6049689 V 35.285202 70.448979 H 39.768746 74.932523 v 2.180699 2.1807 H 37.497184 0.06184523 Z"
   id="path4625"
   inkscape:connector-curvature="0" /><path
   style="fill:#f0ffff;fill-opacity:1;stroke-width:0.18172495"
   d="M 0.06184523,37.465901 V 0.12142456 H 2.3334071 4.6049689 V 35.285202 70.448979 H 39.768746 74.932523 v 2.180699 2.1807 H 37.497184 0.06184523 Z"
   id="path4627"
   inkscape:connector-curvature="0" /><path
   style="fill:#f0ffff;fill-opacity:1;stroke-width:0.18172495"
   d="M 0.06184523,37.465901 V 0.12142456 H 2.3334071 4.6049689 V 35.285202 70.448979 H 39.768746 74.932523 v 2.180699 2.1807 H 37.497184 0.06184523 Z"
   id="path4629"
   inkscape:connector-curvature="0" /><path
   style="fill:#f0ffff;fill-opacity:1;stroke-width:0.18172495"
   d="M 0.06184523,37.465901 V 0.12142456 H 2.3334071 4.6049689 V 35.285202 70.448979 H 39.768746 74.932523 v 2.180699 2.1807 H 37.497184 0.06184523 Z"
   id="path4631"
   inkscape:connector-curvature="0" /><path
   style="fill:#f0ffff;fill-opacity:1;stroke-width:0.18172495"
   d="M 0.06184523,37.465901 V 0.12142456 H 2.3334071 4.6049689 V 35.285202 70.448979 H 39.768746 74.932523 v 2.180699 2.1807 H 37.497184 0.06184523 Z"
   id="path4633"
   inkscape:connector-curvature="0" /><path
   style="fill:#f0ffff;fill-opacity:1;stroke-width:0.18172495"
   d="M 0.06184523,37.465901 V 0.12142456 H 2.3334071 4.6049689 V 35.285202 70.448979 H 39.768746 74.932523 v 2.180699 2.1807 H 37.497184 0.06184523 Z"
   id="path4635"
   inkscape:connector-curvature="0" /><path
   style="fill:#f0ffff;fill-opacity:1;stroke-width:0.18172495"
   d="m 16.87008,60.390265 c -0.991279,-0.461616 -1.990358,-1.4741 -2.383835,-2.415822 -0.359921,-0.861413 -0.311409,-2.730568 0.09364,-3.608122 0.454182,-0.983993 1.535276,-2.013872 2.501292,-2.382795 0.599388,-0.22891 1.127547,-0.279126 2.134654,-0.202958 l 1.338208,0.101208 4.010299,-5.612688 c 2.205664,-3.086978 3.953022,-5.644626 3.883016,-5.68366 -0.07001,-0.03903 -1.313895,-0.29973 -2.764197,-0.579323 l -2.636914,-0.50835 -1.088447,1.084911 c -0.813766,0.811122 -1.307359,1.145721 -1.955897,1.325874 -2.199863,0.611088 -4.619699,-0.563496 -5.499652,-2.669521 -0.146223,-0.349961 -0.26586,-1.119589 -0.26586,-1.710285 0,-1.839361 0.790278,-3.187573 2.373575,-4.049311 1.675747,-0.912056 3.712431,-0.677616 5.114061,0.588672 0.797964,0.720912 1.325037,1.633057 1.508386,2.610392 l 0.121843,0.649479 3.292188,0.658971 c 1.810703,0.362435 3.352355,0.59791 3.425894,0.523281 0.07354,-0.07463 2.055966,-2.827954 4.405392,-6.118495 l 4.271685,-5.982805 -0.349001,-0.490129 c -0.550502,-0.773107 -0.749191,-1.457405 -0.744747,-2.564958 0.0049,-1.222075 0.310749,-2.027924 1.119084,-2.948566 1.132112,-1.289404 2.988815,-1.843527 4.633844,-1.382949 1.04888,0.29367 2.489835,1.564921 2.880484,2.541246 l 0.291411,0.728306 h 4.591767 4.591768 L 61.263033,14.95566 66.762041,7.6194511 66.258728,6.649262 C 64.618982,3.4884833 67.161739,-0.15581551 70.778073,0.17210209 72.663462,0.34306312 74.21918,1.648055 74.729666,3.4868354 75.334223,5.6644696 74.242225,7.9512138 72.172618,8.8415356 71.35505,9.1932435 71.005066,9.2395265 69.79187,9.1563722 l -1.422279,-0.097485 -4.896156,6.5230368 c -2.692887,3.58767 -4.896157,6.565091 -4.896157,6.61649 0,0.0514 1.667548,0.09345 3.705661,0.09345 h 3.70566 l 0.10539,-0.419904 c 0.184722,-0.735988 1.163801,-1.902419 2.016116,-2.401908 0.534154,-0.313034 1.202407,-0.51788 1.894045,-0.580595 3.115424,-0.282497 5.658568,2.927463 4.672172,5.897222 -1.334755,4.018574 -6.643077,4.342421 -8.442161,0.515034 l -0.389748,-0.82915 h -4.520244 -4.520246 l -5.539938,7.388208 -5.53994,7.38821 0.537034,1.016569 c 0.462008,0.874551 0.52698,1.168898 0.465069,2.106921 -0.08316,1.259993 -0.467537,2.158907 -1.277307,2.987158 -2.548589,2.606759 -6.782015,1.419912 -7.689946,-2.155887 l -0.208771,-0.82222 -3.307116,-0.661099 -3.307116,-0.661097 -4.229075,5.926596 c -2.325992,3.259628 -4.292313,6.03397 -4.369604,6.165202 -0.08261,0.140265 -0.01372,0.378728 0.16714,0.578578 0.169217,0.186982 0.418967,0.652044 0.555,1.033466 1.335727,3.74526 -2.58184,7.306989 -6.189273,5.627093 z M 38.486697,39.570132 c 1.133265,-1.635302 3.469674,-2.410321 5.229944,-1.734842 0.228671,0.08775 1.420037,-1.383374 5.180691,-6.397227 2.686051,-3.581152 4.945502,-6.613403 5.021,-6.738339 0.108041,-0.178787 -0.651671,-0.227157 -3.567751,-0.227157 h -3.705023 l -0.432298,0.922976 c -0.931023,1.987773 -2.906102,2.947168 -5.105335,2.479917 l -0.659796,-0.140181 -4.036353,5.651199 c -2.219994,3.108158 -4.00838,5.678145 -3.97419,5.711081 0.04644,0.04474 4.744827,1.051702 5.443765,1.166717 0.06137,0.0101 0.333774,-0.302265 0.605346,-0.694144 z"
   id="path4637"
   inkscape:connector-curvature="0" /></svg>
